{
  "accessors": [
    {
      "bufferView": 2,
      "componentType": 5126,
      "count": 8222,
      "max": [
        0.15199999511241913,
        0.10499999672174454,
        3.4924596548080444e-09
      ],
      "min": [
        -0.15200001001358032,
        -0.09603267908096313,
        -0.009755848906934261
      ],
      "type": "VEC3"
    },
    {
      "bufferView": 2,
      "byteOffset": 98664,
      "componentType": 5126,
      "count": 8222,
      "max": [
        1.0,
        1.0,
        1.0
      ],
      "min": [
        -1.0,
        -1.0,
        -1.0
      ],
      "type": "VEC3"
    },
    {
      "bufferView": 1,
      "componentType": 5126,
      "count": 8222,
      "max": [
        0.9837092757225037,
        0.9981542825698853
      ],
      "min": [
        0.009269103407859802,
        0.024381175637245178
      ],
      "type": "VEC2"
    },
    {
      "bufferView": 0,
      "componentType": 5125,
      "count": 24492,
      "type": "SCALAR"
    },
    {
      "bufferView": 2,
      "byteOffset": 197328,
      "componentType": 5126,
      "count": 203,
      "max": [
        0.15200001001358032,
        0.19908371567726135,
        0.006765663158148527
      ],
      "min": [
        -0.15199998021125793,
        -0.0019489675760269165,
        -0.004622588865458965
      ],
      "type": "VEC3"
    },
    {
      "bufferView": 2,
      "byteOffset": 199764,
      "componentType": 5126,
      "count": 203,
      "max": [
        1.0,
        1.0,
        1.0
      ],
      "min": [
        -1.0,
        -1.0,
        -1.0
      ],
      "type": "VEC3"
    },
    {
      "bufferView": 1,
      "byteOffset": 65776,
      "componentType": 5126,
      "count": 203,
      "max": [
        0.984298586845398,
        0.9950575828552246
      ],
      "min": [
        0.012971997261047363,
        0.006867029704153538
      ],
      "type": "VEC2"
    },
    {
      "bufferView": 0,
      "byteOffset": 97968,
      "componentType": 5125,
      "count": 474,
      "type": "SCALAR"
    }
  ],
  "asset": {
    "extras": {
      "author": "Aullwen (https://sketchfab.com/Aullwen)",
      "license": "CC-BY-4.0 (http://creativecommons.org/licenses/by/4.0/)",
      "source": "https://sketchfab.com/3d-models/laptop-7d870e900889481395b4a575b9fa8c3e",
      "title": "Laptop"
    },
    "generator": "Sketchfab-11.26.0",
    "version": "2.0"
  },
  "bufferViews": [
    {
      "buffer": 0,
      "byteLength": 99864,
      "name": "floatBufferViews",
      "target": 34963
    },
    {
      "buffer": 0,
      "byteLength": 67400,
      "byteOffset": 99864,
      "byteStride": 8,
      "name": "floatBufferViews",
      "target": 34962
    },
    {
      "buffer": 0,
      "byteLength": 202200,
      "byteOffset": 167264,
      "byteStride": 12,
      "name": "floatBufferViews",
      "target": 34962
    }
  ],
  "buffers": [
    {
      "byteLength": 369464,
      "uri": "scene.bin"
    }
  ],
  "images": [
    {
      "uri": "textures/ComputerFrame_baseColor.png"
    },
    {
      "uri": "textures/ComputerFrame_emissive.png"
    },
    {
      "uri": "textures/ComputerScreen_baseColor.png"
    },
    {
      "uri": "textures/ComputerScreen_metallicRoughness.png"
    },
    {
      "uri": "textures/ComputerScreen_emissive.png"
    }
  ],
  "materials": [
    {
      "doubleSided": true,
      "emissiveFactor": [
        1.0,
        1.0,
        1.0
      ],
      "emissiveTexture": {
        "index": 1
      },
      "name": "ComputerFrame",
      "pbrMetallicRoughness": {
        "baseColorTexture": {
          "index": 0
        },
        "metallicFactor": 0.0
      }
    },
    {
      "doubleSided": true,
      "emissiveFactor": [
        1.0,
        1.0,
        1.0
      ],
      "emissiveTexture": {
        "index": 4
      },
      "name": "ComputerScreen",
      "pbrMetallicRoughness": {
        "baseColorTexture": {
          "index": 2
        },
        "metallicFactor": 0.0,
        "metallicRoughnessTexture": {
          "index": 3
        }
      }
    }
  ],
  "meshes": [
    {
      "name": "Frame_ComputerFrame_0",
      "primitives": [
        {
          "attributes": {
            "NORMAL": 1,
            "POSITION": 0,
            "TEXCOORD_0": 2
          },
          "indices": 3,
          "material": 0,
          "mode": 4
        }
      ]
    },
    {
      "name": "Screen_ComputerScreen_0",
      "primitives": [
        {
          "attributes": {
            "NORMAL": 5,
            "POSITION": 4,
            "TEXCOORD_0": 6
          },
          "indices": 7,
          "material": 1,
          "mode": 4
        }
      ]
    }
  ],
  "nodes": [
    {
      "children": [
        1
      ],
      "matrix": [
        1.0,
        0.0,
        0.0,
        0.0,
        0.0,
        2.220446049250313e-16,
        -1.0,
        0.0,
        0.0,
        1.0,
        2.220446049250313e-16,
        0.0,
        0.0,
        0.0,
        0.0,
        1.0
      ],
      "name": "Sketchfab_model"
    },
    {
      "children": [
        2
      ],
      "matrix": [
        1.0,
        0.0,
        0.0,
        0.0,
        0.0,
        0.0,
        1.0,
        0.0,
        0.0,
        -1.0,
        0.0,
        0.0,
        0.0,
        0.0,
        0.0,
        1.0
      ],
      "name": "6d4c164f62674ba9b12714fec0584379.fbx"
    },
    {
      "children": [
        3,
        5
      ],
      "name": "RootNode"
    },
    {
      "children": [
        4
      ],
      "matrix": [
        100.0,
        0.0,
        0.0,
        0.0,
        0.0,
        -1.629206793918314e-05,
        -99.99999999999868,
        0.0,
        0.0,
        99.99999999999868,
        -1.629206793918314e-05,
        0.0,
        0.0,
        0.9755473732948303,
        0.0,
        1.0
      ],
      "name": "Frame"
    },
    {
      "mesh": 0,
      "name": "Frame_ComputerFrame_0"
    },
    {
      "children": [
        6
      ],
      "matrix": [
        -99.99999999998712,
        3.258412842991097e-05,
        3.8941437775530106e-05,
        0.0,
        3.2584122085542866e-05,
        99.99999999999336,
        -1.6292079875223588e-05,
        0.0,
        -3.436009841184489e-05,
        -1.4375354057900743e-05,
        -88.23529815673042,
        0.0,
        2.768618667658984e-13,
        0.6500000357627869,
        -10.30000114440918,
        1.0
      ],
      "name": "Screen"
    },
    {
      "mesh": 1,
      "name": "Screen_ComputerScreen_0"
    }
  ],
  "samplers": [
    {
      "magFilter": 9729,
      "minFilter": 9987,
      "wrapS": 10497,
      "wrapT": 10497
    }
  ],
  "scene": 0,
  "scenes": [
    {
      "name": "Sketchfab_Scene",
      "nodes": [
        0
      ]
    }
  ],
  "textures": [
    {
      "sampler": 0,
      "source": 0
    },
    {
      "sampler": 0,
      "source": 1
    },
    {
      "sampler": 0,
      "source": 2
    },
    {
      "sampler": 0,
      "source": 3
    },
    {
      "sampler": 0,
      "source": 4
    }
  ]
}
