{
  "accessors": [
    {
      "bufferView": 2,
      "componentType": 5126,
      "count": 15968,
      "max": [
        1.3607759475708008,
        1.1091619729995728,
        5.509160041809082
      ],
      "min": [
        -1.8411300182342529,
        -1.0905870199203491,
        -6.9875679016113281
      ],
      "type": "VEC3"
    },
    {
      "bufferView": 2,
      "byteOffset": 191616,
      "componentType": 5126,
      "count": 15968,
      "max": [
        0.99740892648696899,
        0.99862051010131836,
        0.95860970020294189
      ],
      "min": [
        -0.99725788831710815,
        -0.98251771926879883,
        -0.99282145500183105
      ],
      "type": "VEC3"
    },
    {
      "bufferView": 3,
      "componentType": 5126,
      "count": 15968,
      "max": [
        0.99099987745285034,
        0.99987316131591797,
        0.99982494115829468,
        1
      ],
      "min": [
        -0.61291247606277466,
        -0.99943679571151733,
        -0.99997830390930176,
        -1
      ],
      "type": "VEC4"
    },
    {
      "bufferView": 1,
      "componentType": 5126,
      "count": 15968,
      "max": [
        0.55848598480224609,
        0.34831890463829041
      ],
      "min": [
        0.37838590145111084,
        0.0063526029698550701
      ],
      "type": "VEC2"
    },
    {
      "bufferView": 0,
      "componentType": 5125,
      "count": 23952,
      "max": [
        15967
      ],
      "min": [
        0
      ],
      "type": "SCALAR"
    },
    {
      "bufferView": 2,
      "byteOffset": 383232,
      "componentType": 5126,
      "count": 23174,
      "max": [
        5.0006299018859863,
        4.9830121994018555,
        8.0995397567749023
      ],
      "min": [
        -4.9727439880371094,
        -4.9903640747070312,
        -4.954683780670166
      ],
      "type": "VEC3"
    },
    {
      "bufferView": 2,
      "byteOffset": 661320,
      "componentType": 5126,
      "count": 23174,
      "max": [
        0.99985760450363159,
        0.99985760450363159,
        1
      ],
      "min": [
        -0.99985760450363159,
        -0.99985760450363159,
        -1
      ],
      "type": "VEC3"
    },
    {
      "bufferView": 3,
      "byteOffset": 255488,
      "componentType": 5126,
      "count": 23174,
      "max": [
        1,
        0.99997007846832275,
        0.9845888614654541,
        1
      ],
      "min": [
        -0.82499158382415771,
        -0.99998223781585693,
        -0.98911762237548828,
        -1
      ],
      "type": "VEC4"
    },
    {
      "bufferView": 1,
      "byteOffset": 127744,
      "componentType": 5126,
      "count": 23174,
      "max": [
        0.98728859424591064,
        0.99846142530441284
      ],
      "min": [
        0.010486720129847527,
        0.32302060723304749
      ],
      "type": "VEC2"
    },
    {
      "bufferView": 0,
      "byteOffset": 95808,
      "componentType": 5125,
      "count": 138996,
      "max": [
        23173
      ],
      "min": [
        0
      ],
      "type": "SCALAR"
    }
  ],
  "asset": {
    "extras": {
      "author": "mellydeeis (https://sketchfab.com/mellydeeis)",
      "license": "CC-BY-4.0 (http://creativecommons.org/licenses/by/4.0/)",
      "source": "https://sketchfab.com/3d-models/red-balloon-da82d97b29d54c84b0c4c776b530f6f8",
      "title": "Red Balloon"
    },
    "generator": "Sketchfab-6.90.0",
    "version": "2.0"
  },
  "bufferViews": [
    {
      "buffer": 0,
      "byteLength": 651792,
      "byteOffset": 0,
      "name": "floatBufferViews",
      "target": 34963
    },
    {
      "buffer": 0,
      "byteLength": 313136,
      "byteOffset": 651792,
      "byteStride": 8,
      "name": "floatBufferViews",
      "target": 34962
    },
    {
      "buffer": 0,
      "byteLength": 939408,
      "byteOffset": 964928,
      "byteStride": 12,
      "name": "floatBufferViews",
      "target": 34962
    },
    {
      "buffer": 0,
      "byteLength": 626272,
      "byteOffset": 1904336,
      "byteStride": 16,
      "name": "floatBufferViews",
      "target": 34962
    }
  ],
  "buffers": [
    {
      "byteLength": 2530608,
      "uri": "scene.bin"
    }
  ],
  "extensionsRequired": [
    "KHR_materials_pbrSpecularGlossiness"
  ],
  "extensionsUsed": [
    "KHR_materials_pbrSpecularGlossiness"
  ],
  "images": [
    {
      "uri": "textures/Material_diffuse.png"
    },
    {
      "uri": "textures/Material_specularGlossiness.png"
    },
    {
      "uri": "textures/Material_occlusion.png"
    }
  ],
  "materials": [
    {
      "alphaMode": "BLEND",
      "doubleSided": true,
      "emissiveFactor": [
        0,
        0,
        0
      ],
      "extensions": {
        "KHR_materials_pbrSpecularGlossiness": {
          "diffuseFactor": [
            0.76729559748427678,
            0.76729559748427678,
            0.76729559748427678,
            0.75
          ],
          "diffuseTexture": {
            "index": 0,
            "texCoord": 0
          },
          "glossinessFactor": 1,
          "specularFactor": [
            1,
            1,
            1
          ],
          "specularGlossinessTexture": {
            "index": 1,
            "texCoord": 0
          }
        }
      },
      "name": "Material",
      "occlusionTexture": {
        "index": 2,
        "strength": 1,
        "texCoord": 0
      }
    },
    {
      "doubleSided": true,
      "emissiveFactor": [
        0,
        0,
        0
      ],
      "extensions": {
        "KHR_materials_pbrSpecularGlossiness": {
          "diffuseFactor": [
            1,
            1,
            1,
            1
          ],
          "diffuseTexture": {
            "index": 0,
            "texCoord": 0
          },
          "glossinessFactor": 0.44721359549995798,
          "specularFactor": [
            0,
            0,
            0
          ]
        }
      },
      "name": "Material_001"
    }
  ],
  "meshes": [
    {
      "name": "Material_001-material",
      "primitives": [
        {
          "attributes": {
            "NORMAL": 1,
            "POSITION": 0,
            "TANGENT": 2,
            "TEXCOORD_0": 3
          },
          "indices": 4,
          "material": 1,
          "mode": 4
        }
      ]
    },
    {
      "name": "Material-material",
      "primitives": [
        {
          "attributes": {
            "NORMAL": 6,
            "POSITION": 5,
            "TANGENT": 7,
            "TEXCOORD_0": 8
          },
          "indices": 9,
          "material": 0,
          "mode": 4
        }
      ]
    }
  ],
  "nodes": [
    {
      "children": [
        1
      ],
      "name": "RootNode (gltf orientation matrix)",
      "rotation": [
        -0.70710678118654746,
        -0,
        -0,
        0.70710678118654757
      ]
    },
    {
      "children": [
        2
      ],
      "name": "RootNode (model correction matrix)"
    },
    {
      "children": [
        3,
        5
      ],
      "name": "Collada visual scene group"
    },
    {
      "children": [
        4
      ],
      "matrix": [
        1,
        0,
        0,
        0,
        0,
        1,
        0,
        0,
        0,
        0,
        1,
        0,
        -0.4114351,
        0.096920149999999997,
        -8.2581039999999994,
        1
      ],
      "name": "Circle"
    },
    {
      "mesh": 0,
      "name": "Material_001-material"
    },
    {
      "children": [
        6
      ],
      "matrix": [
        1,
        0,
        0,
        0,
        0,
        1,
        0,
        0,
        0,
        0,
        1,
        0,
        -0.01394286,
        0.0036761350000000001,
        1.478261,
        1
      ],
      "name": "Sphere"
    },
    {
      "mesh": 1,
      "name": "Material-material"
    }
  ],
  "samplers": [
    {
      "magFilter": 9729,
      "minFilter": 9987,
      "wrapS": 10497,
      "wrapT": 10497
    }
  ],
  "scene": 0,
  "scenes": [
    {
      "name": "OSG_Scene",
      "nodes": [
        0
      ]
    }
  ],
  "textures": [
    {
      "sampler": 0,
      "source": 0
    },
    {
      "sampler": 0,
      "source": 1
    },
    {
      "sampler": 0,
      "source": 2
    }
  ]
}

